<svg xmlns="http://www.w3.org/2000/svg" xmlns:xlink="http://www.w3.org/1999/xlink" width="896" zoomAndPan="magnify" viewBox="0 0 672 149.999998" height="200" preserveAspectRatio="xMidYMid meet" version="1.0"><defs><g/><clipPath id="737a426a32"><path d="M 0.75 0 L 671.25 0 L 671.25 150 L 0.75 150 Z M 0.75 0 " clip-rule="nonzero"/></clipPath><clipPath id="cd9a519493"><path d="M 0.75 0 L 671.25 0 L 671.25 150 L 0.75 150 Z M 0.75 0 " clip-rule="nonzero"/></clipPath><clipPath id="9c23f0a039"><path d="M 559.753906 2.820312 L 633.339844 2.820312 L 633.339844 144.902344 L 559.753906 144.902344 Z M 559.753906 2.820312 " clip-rule="nonzero"/></clipPath><clipPath id="d70af5a571"><path d="M 559.753906 11 L 625 11 L 625 136 L 559.753906 136 Z M 559.753906 11 " clip-rule="nonzero"/></clipPath><clipPath id="91cb524682"><path d="M 641 0 L 671.25 0 L 671.25 150 L 641 150 Z M 641 0 " clip-rule="nonzero"/></clipPath><clipPath id="fa4f8e0362"><rect x="0" width="31" y="0" height="150"/></clipPath><clipPath id="b4bf0911ba"><rect x="0" width="160" y="0" height="150"/></clipPath><clipPath id="e90e334392"><rect x="0" width="672" y="0" height="150"/></clipPath><clipPath id="fc5a2fede1"><rect x="0" width="672" y="0" height="150"/></clipPath></defs><g clip-path="url(#737a426a32)"><g transform="matrix(1, 0, 0, 1, 0, -0.000000000000007527)"><g clip-path="url(#fc5a2fede1)"><g clip-path="url(#cd9a519493)"><g transform="matrix(1, 0, 0, 1, 0, -0.000000000000007527)"><g clip-path="url(#e90e334392)"><g clip-path="url(#9c23f0a039)"><path fill="#ffffff" d="M 633.746094 55.050781 L 633.746094 23.074219 C 622.597656 23.074219 613.558594 14.035156 613.558594 2.886719 L 295.003906 2.886719 C 295.003906 14.035156 285.964844 23.074219 274.816406 23.074219 L 274.816406 55.050781 C 284.785156 55.433594 292.746094 63.636719 292.746094 73.699219 C 292.746094 83.761719 284.785156 91.964844 274.816406 92.347656 L 274.816406 124.324219 C 285.964844 124.324219 295.003906 133.363281 295.003906 144.515625 L 613.558594 144.515625 C 613.558594 133.363281 622.59375 124.324219 633.746094 124.324219 L 633.746094 92.347656 C 623.777344 91.964844 615.816406 83.761719 615.816406 73.699219 C 615.816406 63.636719 623.777344 55.4375 633.746094 55.050781 Z M 633.746094 55.050781 " fill-opacity="1" fill-rule="nonzero"/></g><g clip-path="url(#d70af5a571)"><path fill="#320b37" d="M 624.191406 47.882812 L 624.640625 47.703125 L 624.640625 30.738281 L 624.164062 30.570312 C 615.75 27.648438 608.984375 20.882812 606.0625 12.46875 L 605.894531 11.992188 L 302.667969 11.992188 L 302.5 12.46875 C 299.582031 20.882812 292.8125 27.648438 284.398438 30.570312 L 283.921875 30.738281 L 283.921875 47.703125 L 284.371094 47.882812 C 294.992188 52.082031 301.851562 62.214844 301.851562 73.699219 C 301.851562 85.183594 294.992188 95.320312 284.371094 99.519531 L 283.921875 99.695312 L 283.921875 116.660156 L 284.398438 116.828125 C 292.8125 119.746094 299.578125 126.515625 302.5 134.929688 L 302.667969 135.40625 L 605.894531 135.40625 L 606.0625 134.929688 C 608.980469 126.515625 615.75 119.75 624.164062 116.828125 L 624.640625 116.660156 L 624.640625 99.695312 L 624.191406 99.519531 C 613.570312 95.316406 606.707031 85.183594 606.707031 73.699219 C 606.710938 62.214844 613.570312 52.082031 624.191406 47.882812 Z M 610.417969 57.109375 C 607.058594 61.988281 605.285156 67.722656 605.285156 73.699219 C 605.285156 79.675781 607.0625 85.410156 610.417969 90.285156 C 613.613281 94.929688 618.03125 98.507812 623.21875 100.65625 L 623.21875 115.652344 C 619.050781 117.179688 615.191406 119.644531 612.035156 122.800781 C 608.878906 125.960938 606.414062 129.816406 604.886719 133.984375 L 542.78125 133.984375 C 542.789062 133.925781 542.792969 133.867188 542.792969 133.808594 L 542.792969 130.394531 C 542.792969 129.609375 542.15625 128.972656 541.371094 128.972656 C 540.585938 128.972656 539.949219 129.609375 539.949219 130.394531 L 539.949219 133.808594 C 539.949219 133.867188 539.953125 133.925781 539.960938 133.984375 L 303.671875 133.984375 C 302.144531 129.816406 299.683594 125.960938 296.527344 122.800781 C 293.367188 119.644531 289.511719 117.179688 285.34375 115.652344 L 285.34375 100.660156 C 290.53125 98.507812 294.949219 94.929688 298.144531 90.289062 C 301.5 85.410156 303.273438 79.675781 303.273438 73.699219 C 303.273438 67.722656 301.5 61.984375 298.144531 57.109375 C 294.949219 52.464844 290.53125 48.890625 285.34375 46.738281 L 285.34375 31.742188 C 289.511719 30.214844 293.367188 27.753906 296.527344 24.59375 C 299.683594 21.4375 302.144531 17.578125 303.671875 13.414062 L 539.960938 13.414062 C 539.953125 13.46875 539.949219 13.527344 539.949219 13.585938 L 539.949219 17 C 539.949219 17.785156 540.585938 18.421875 541.371094 18.421875 C 541.765625 18.421875 542.121094 18.261719 542.378906 18.003906 C 542.636719 17.746094 542.796875 17.390625 542.796875 17 C 542.796875 16.996094 542.796875 16.992188 542.796875 16.988281 L 542.796875 13.585938 C 542.796875 13.527344 542.789062 13.46875 542.785156 13.414062 L 604.886719 13.414062 C 606.414062 17.578125 608.878906 21.4375 612.035156 24.59375 C 615.195312 27.753906 619.050781 30.21875 623.21875 31.742188 L 623.21875 46.738281 C 618.03125 48.890625 613.613281 52.46875 610.417969 57.109375 Z M 610.417969 57.109375 " fill-opacity="1" fill-rule="nonzero"/></g><g clip-path="url(#91cb524682)"><g transform="matrix(1, 0, 0, 1, 641, -0.000000000000007527)"><g clip-path="url(#fa4f8e0362)"><g fill="#ffffff" fill-opacity="1"><g transform="translate(0.0878979, 145.298707)"><g><path d="M 9.609375 0 L 9.609375 -142.21875 L 27.546875 -142.21875 L 27.546875 0 Z M 9.609375 0 "/></g></g></g></g></g></g><g transform="matrix(1, 0, 0, 1, 394, -0.000000000000007527)"><g clip-path="url(#b4bf0911ba)"><g fill="#ffffff" fill-opacity="1"><g transform="translate(0.107551, 141.227705)"><g><path d="M 72.125 -31.140625 C 72.125 -26.222656 71.441406 -21.710938 70.078125 -17.609375 C 68.710938 -13.515625 66.660156 -10 63.921875 -7.0625 C 61.191406 -4.125 57.8125 -1.800781 53.78125 -0.09375 C 49.75 1.601562 45.140625 2.453125 39.953125 2.453125 C 34.765625 2.453125 30.15625 1.601562 26.125 -0.09375 C 22.09375 -1.800781 18.710938 -4.125 15.984375 -7.0625 C 13.253906 -10 11.203125 -13.515625 9.828125 -17.609375 C 8.460938 -21.710938 7.78125 -26.222656 7.78125 -31.140625 L 7.78125 -105.3125 C 7.78125 -110.09375 8.460938 -114.53125 9.828125 -118.625 C 11.203125 -122.726562 13.253906 -126.28125 15.984375 -129.28125 C 18.710938 -132.289062 22.09375 -134.648438 26.125 -136.359375 C 30.15625 -138.066406 34.765625 -138.921875 39.953125 -138.921875 C 45.140625 -138.921875 49.75 -138.066406 53.78125 -136.359375 C 57.8125 -134.648438 61.191406 -132.289062 63.921875 -129.28125 C 66.660156 -126.28125 68.710938 -122.726562 70.078125 -118.625 C 71.441406 -114.53125 72.125 -110.09375 72.125 -105.3125 Z M 55.109375 -107.15625 C 55.109375 -111.800781 53.84375 -115.660156 51.3125 -118.734375 C 48.789062 -121.804688 45.003906 -123.34375 39.953125 -123.34375 C 34.765625 -123.34375 30.941406 -121.804688 28.484375 -118.734375 C 26.023438 -115.660156 24.796875 -111.800781 24.796875 -107.15625 L 24.796875 -29.296875 C 24.796875 -24.515625 26.023438 -20.617188 28.484375 -17.609375 C 30.941406 -14.609375 34.765625 -13.109375 39.953125 -13.109375 C 45.003906 -13.109375 48.789062 -14.609375 51.3125 -17.609375 C 53.84375 -20.617188 55.109375 -24.515625 55.109375 -29.296875 Z M 55.109375 -107.15625 "/></g></g></g><g fill="#ffffff" fill-opacity="1"><g transform="translate(80.00974, 141.227705)"><g><path d="M 70.6875 1.234375 C 64.40625 1.234375 59.960938 0.109375 57.359375 -2.140625 C 54.765625 -4.398438 53.46875 -8.738281 53.46875 -15.15625 L 53.46875 -46.3125 C 53.46875 -50.40625 52.507812 -53.679688 50.59375 -56.140625 C 48.6875 -58.597656 45.753906 -59.828125 41.796875 -59.828125 L 26.4375 -59.828125 L 26.4375 0 L 9.21875 0 L 9.21875 -136.453125 L 42.625 -136.453125 C 51.363281 -136.453125 58.085938 -134.234375 62.796875 -129.796875 C 67.515625 -125.359375 69.875 -118.425781 69.875 -109 L 69.875 -88.3125 C 69.875 -82.4375 68.8125 -77.6875 66.6875 -74.0625 C 64.570312 -70.445312 60.785156 -67.957031 55.328125 -66.59375 C 60.648438 -65.5 64.503906 -62.898438 66.890625 -58.796875 C 69.285156 -54.703125 70.484375 -50.195312 70.484375 -45.28125 L 70.484375 -16.1875 C 70.484375 -12.632812 72.050781 -10.859375 75.1875 -10.859375 L 75.1875 1.234375 Z M 52.859375 -109.609375 C 52.859375 -113.160156 52.035156 -115.960938 50.390625 -118.015625 C 48.753906 -120.066406 46.09375 -121.09375 42.40625 -121.09375 L 26.4375 -121.09375 L 26.4375 -73.5625 L 40.765625 -73.5625 C 44.597656 -73.5625 47.570312 -74.6875 49.6875 -76.9375 C 51.800781 -79.1875 52.859375 -82.5 52.859375 -86.875 Z M 52.859375 -109.609375 "/></g></g></g></g></g><g fill="#ffffff" fill-opacity="1"><g transform="translate(1.147123, 140.122236)"><g><path d="M 42.71875 -120.953125 L 42.71875 0 L 25.671875 0 L 25.671875 -120.953125 L 2.46875 -120.953125 L 2.46875 -136.765625 L 65.515625 -136.765625 L 65.515625 -120.953125 Z M 42.71875 -120.953125 "/></g></g></g><g fill="#ffffff" fill-opacity="1"><g transform="translate(69.121477, 140.122236)"><g><path d="M 9.234375 0 L 9.234375 -136.765625 L 26.484375 -136.765625 L 26.484375 0 Z M 9.234375 0 "/></g></g></g><g fill="#ffffff" fill-opacity="1"><g transform="translate(104.854216, 140.122236)"><g><path d="M 71.046875 -29.15625 C 71.046875 -24.644531 70.394531 -20.472656 69.09375 -16.640625 C 67.800781 -12.804688 65.851562 -9.484375 63.25 -6.671875 C 60.644531 -3.867188 57.390625 -1.644531 53.484375 0 C 49.585938 1.644531 45.039062 2.46875 39.84375 2.46875 C 34.632812 2.46875 30.007812 1.613281 25.96875 -0.09375 C 21.9375 -1.8125 18.582031 -4.175781 15.90625 -7.1875 C 13.238281 -10.195312 11.21875 -13.6875 9.84375 -17.65625 C 8.476562 -21.625 7.796875 -25.867188 7.796875 -30.390625 L 7.796875 -106.375 C 7.796875 -110.894531 8.476562 -115.140625 9.84375 -119.109375 C 11.21875 -123.078125 13.238281 -126.53125 15.90625 -129.46875 C 18.582031 -132.414062 21.9375 -134.78125 25.96875 -136.5625 C 30.007812 -138.34375 34.632812 -139.234375 39.84375 -139.234375 C 45.039062 -139.234375 49.585938 -138.410156 53.484375 -136.765625 C 57.390625 -135.128906 60.644531 -132.90625 63.25 -130.09375 C 65.851562 -127.289062 67.800781 -123.972656 69.09375 -120.140625 C 70.394531 -116.304688 71.046875 -112.128906 71.046875 -107.609375 L 71.046875 -88.921875 L 55.859375 -88.921875 L 55.859375 -108.015625 C 55.859375 -112.671875 54.554688 -116.4375 51.953125 -119.3125 C 49.347656 -122.1875 45.515625 -123.625 40.453125 -123.625 C 35.253906 -123.625 31.351562 -122.1875 28.75 -119.3125 C 26.144531 -116.4375 24.84375 -112.878906 24.84375 -108.640625 L 24.84375 -28.140625 C 24.84375 -23.753906 26.144531 -20.15625 28.75 -17.34375 C 31.351562 -14.539062 35.253906 -13.140625 40.453125 -13.140625 C 45.515625 -13.140625 49.347656 -14.539062 51.953125 -17.34375 C 54.554688 -20.15625 55.859375 -23.957031 55.859375 -28.75 L 55.859375 -48.046875 L 71.046875 -48.046875 Z M 71.046875 -29.15625 "/></g></g></g><g fill="#ffffff" fill-opacity="1"><g transform="translate(181.659084, 140.122236)"><g><path d="M 56.0625 0 L 35.53125 -60.78125 L 26.28125 -40.046875 L 26.28125 0 L 9.234375 0 L 9.234375 -136.765625 L 26.28125 -136.765625 L 26.28125 -67.765625 L 56.46875 -136.765625 L 74.140625 -136.765625 L 46.40625 -77.828125 L 74.34375 0 Z M 56.0625 0 "/></g></g></g><g fill="#ffffff" fill-opacity="1"><g transform="translate(258.258582, 140.122236)"><g><path d="M 9.234375 0 L 9.234375 -136.765625 L 62.84375 -136.765625 L 62.84375 -121.15625 L 26.28125 -121.15625 L 26.28125 -78.65625 L 52.78125 -78.65625 L 52.78125 -63.65625 L 26.28125 -63.65625 L 26.28125 -15.609375 L 62.84375 -15.609375 L 62.84375 0 Z M 9.234375 0 "/></g></g></g><g fill="#ffffff" fill-opacity="1"><g transform="translate(326.232936, 140.122236)"><g><path d="M 42.71875 -120.953125 L 42.71875 0 L 25.671875 0 L 25.671875 -120.953125 L 2.46875 -120.953125 L 2.46875 -136.765625 L 65.515625 -136.765625 L 65.515625 -120.953125 Z M 42.71875 -120.953125 "/></g></g></g></g></g></g></g></g></g></svg>