<svg xmlns="http://www.w3.org/2000/svg" xmlns:xlink="http://www.w3.org/1999/xlink" width="144" zoomAndPan="magnify" viewBox="0 0 108 107.999999" height="144" preserveAspectRatio="xMidYMid meet" version="1.0"><defs><clipPath id="83d25d2e69"><path d="M 26.617188 1.539062 L 81.265625 1.539062 L 81.265625 106.539062 L 26.617188 106.539062 Z M 26.617188 1.539062 " clip-rule="nonzero"/></clipPath><clipPath id="8934c363b2"><path d="M 26.617188 8 L 75 8 L 75 100 L 26.617188 100 Z M 26.617188 8 " clip-rule="nonzero"/></clipPath></defs><g clip-path="url(#83d25d2e69)"><path fill="#320b37" d="M 81.375 40.195312 L 81.375 16.53125 C 73.125 16.53125 66.4375 9.84375 66.4375 1.589844 L -169.296875 1.589844 C -169.296875 9.84375 -175.988281 16.53125 -184.238281 16.53125 L -184.238281 40.195312 C -176.863281 40.476562 -170.96875 46.546875 -170.96875 53.996094 C -170.96875 61.441406 -176.863281 67.511719 -184.238281 67.792969 L -184.238281 91.457031 C -175.988281 91.457031 -169.296875 98.148438 -169.296875 106.398438 L 66.433594 106.398438 C 66.433594 98.148438 73.125 91.457031 81.375 91.457031 L 81.375 67.792969 C 74 67.511719 68.105469 61.441406 68.105469 53.996094 C 68.105469 46.546875 74 40.480469 81.375 40.195312 Z M 81.375 40.195312 " fill-opacity="1" fill-rule="nonzero"/></g><g clip-path="url(#8934c363b2)"><path fill="#ffffff" d="M 74.304688 34.890625 L 74.636719 34.757812 L 74.636719 22.203125 L 74.285156 22.078125 C 68.058594 19.917969 63.050781 14.910156 60.886719 8.683594 L 60.765625 8.332031 L -163.628906 8.332031 L -163.75 8.683594 C -165.910156 14.910156 -170.921875 19.917969 -177.144531 22.078125 L -177.5 22.203125 L -177.5 34.757812 L -177.167969 34.890625 C -169.308594 37.996094 -164.230469 45.496094 -164.230469 53.996094 C -164.230469 62.492188 -169.308594 69.996094 -177.167969 73.101562 L -177.5 73.234375 L -177.5 85.789062 L -177.144531 85.910156 C -170.921875 88.070312 -165.914062 93.078125 -163.75 99.304688 L -163.628906 99.660156 L 60.765625 99.660156 L 60.886719 99.304688 C 63.050781 93.078125 68.058594 88.074219 74.285156 85.910156 L 74.636719 85.789062 L 74.636719 73.234375 L 74.304688 73.101562 C 66.445312 69.992188 61.367188 62.492188 61.367188 53.996094 C 61.367188 45.496094 66.445312 37.996094 74.304688 34.890625 Z M 64.109375 41.71875 C 61.628906 45.328125 60.316406 49.570312 60.316406 53.992188 C 60.316406 58.417969 61.628906 62.660156 64.109375 66.269531 C 66.476562 69.703125 69.746094 72.351562 73.582031 73.945312 L 73.582031 85.042969 C 70.5 86.171875 67.644531 87.996094 65.308594 90.332031 C 62.972656 92.667969 61.148438 95.523438 60.019531 98.605469 L 14.0625 98.605469 C 14.066406 98.5625 14.070312 98.519531 14.070312 98.476562 L 14.070312 95.949219 C 14.070312 95.367188 13.597656 94.898438 13.015625 94.898438 C 12.4375 94.898438 11.964844 95.367188 11.964844 95.949219 L 11.964844 98.476562 C 11.964844 98.519531 11.96875 98.5625 11.972656 98.605469 L -162.882812 98.605469 C -164.011719 95.523438 -165.835938 92.667969 -168.171875 90.332031 C -170.507812 87.996094 -173.363281 86.171875 -176.449219 85.042969 L -176.449219 73.945312 C -172.609375 72.355469 -169.339844 69.707031 -166.972656 66.269531 C -164.492188 62.660156 -163.179688 58.417969 -163.179688 53.992188 C -163.179688 49.570312 -164.492188 45.324219 -166.972656 41.71875 C -169.339844 38.28125 -172.609375 35.636719 -176.449219 34.042969 L -176.449219 22.945312 C -173.363281 21.816406 -170.507812 19.992188 -168.171875 17.65625 C -165.835938 15.320312 -164.011719 12.464844 -162.882812 9.382812 L 11.972656 9.382812 C 11.96875 9.425781 11.964844 9.464844 11.964844 9.507812 L 11.964844 12.035156 C 11.964844 12.617188 12.4375 13.089844 13.019531 13.089844 C 13.308594 13.089844 13.570312 12.96875 13.761719 12.78125 C 13.953125 12.589844 14.070312 12.328125 14.070312 12.035156 C 14.070312 12.03125 14.070312 12.03125 14.070312 12.027344 L 14.070312 9.507812 C 14.070312 9.464844 14.066406 9.421875 14.0625 9.382812 L 60.019531 9.382812 C 61.152344 12.464844 62.972656 15.320312 65.308594 17.65625 C 67.644531 19.992188 70.5 21.816406 73.585938 22.945312 L 73.585938 34.042969 C 69.746094 35.636719 66.476562 38.285156 64.109375 41.71875 Z M 64.109375 41.71875 " fill-opacity="1" fill-rule="nonzero"/></g></svg>